<mxfile host="Electron" modified="2024-06-14T11:31:12.430Z" agent="Mozilla/5.0 (X11; Linux x86_64) AppleWebKit/537.36 (KHTML, like Gecko) draw.io/24.0.4 Chrome/120.0.6099.109 Electron/28.1.0 Safari/537.36" etag="AU1qea2LMq78yfe3Z4HL" version="24.0.4" type="device">
  <diagram name="Page-1" id="nLWpCBj_OwMdbTuCZUF_">
    <mxGraphModel dx="4905" dy="2398" grid="1" gridSize="10" guides="1" tooltips="1" connect="1" arrows="1" fold="1" page="0" pageScale="1" pageWidth="850" pageHeight="1100" math="1" shadow="0">
      <root>
        <mxCell id="0" />
        <mxCell id="1" parent="0" />
        <mxCell id="Y7QLgJ6ppj0nBjB0C8vn-200" value="" style="rounded=1;whiteSpace=wrap;html=1;" vertex="1" parent="1">
          <mxGeometry x="-695" y="200" width="1900" height="890" as="geometry" />
        </mxCell>
        <mxCell id="Y7QLgJ6ppj0nBjB0C8vn-85" value="" style="group" vertex="1" connectable="0" parent="1">
          <mxGeometry x="-650" y="280" width="560" height="790" as="geometry" />
        </mxCell>
        <mxCell id="vZfWUssc-C61SxAlqwz5-2" value="&lt;font color=&quot;#000000&quot; style=&quot;font-size: 28px;&quot;&gt;Multimodal Data Set&amp;nbsp;&lt;/font&gt;&lt;div style=&quot;&quot;&gt;&lt;br&gt;&lt;/div&gt;" style="rounded=0;whiteSpace=wrap;html=1;fillColor=#009E73;strokeColor=#000000;" parent="Y7QLgJ6ppj0nBjB0C8vn-85" vertex="1">
          <mxGeometry width="560" height="80" as="geometry" />
        </mxCell>
        <mxCell id="vZfWUssc-C61SxAlqwz5-6" value="&lt;div&gt;&lt;span style=&quot;font-size: 30px;&quot;&gt;&lt;font color=&quot;#000000&quot;&gt;Modality 1&lt;/font&gt;&lt;/span&gt;&lt;/div&gt;&lt;div&gt;&lt;span style=&quot;font-size: 30px;&quot;&gt;&lt;font color=&quot;#000000&quot;&gt;Encoder&lt;/font&gt;&lt;/span&gt;&lt;/div&gt;&lt;i style=&quot;color: rgb(0, 0, 0);&quot;&gt;&lt;font style=&quot;font-size: 20px;&quot;&gt;$$(F_{m_1}(m_1))$$&amp;nbsp;&lt;/font&gt;&lt;/i&gt;" style="whiteSpace=wrap;html=1;aspect=fixed;fillColor=#0072B2;fontColor=#ffffff;strokeColor=#000000;verticalAlign=middle;labelPosition=center;verticalLabelPosition=middle;align=center;spacingTop=30;" parent="Y7QLgJ6ppj0nBjB0C8vn-85" vertex="1">
          <mxGeometry y="160" width="160" height="160" as="geometry" />
        </mxCell>
        <mxCell id="vZfWUssc-C61SxAlqwz5-7" value="&lt;font style=&quot;font-size: 28px;&quot; color=&quot;#000000&quot;&gt;Fusion Layer&lt;/font&gt;&lt;div style=&quot;&quot;&gt;&lt;i style=&quot;color: rgb(0, 0, 0);&quot;&gt;&lt;font style=&quot;font-size: 20px;&quot;&gt;$$(h^{m_1} \oplus \ldots \oplus h^{m_n})$$&lt;/font&gt;&lt;/i&gt;&lt;br&gt;&lt;/div&gt;" style="rounded=0;whiteSpace=wrap;html=1;strokeColor=#000000;fillColor=#56B4E9;spacingTop=37;" parent="Y7QLgJ6ppj0nBjB0C8vn-85" vertex="1">
          <mxGeometry y="400" width="560" height="80" as="geometry" />
        </mxCell>
        <mxCell id="vZfWUssc-C61SxAlqwz5-8" value="&lt;font style=&quot;font-size: 28px;&quot; color=&quot;#000000&quot;&gt;Multimodal Network&lt;/font&gt;&lt;div style=&quot;&quot;&gt;&lt;font size=&quot;1&quot; style=&quot;&quot; color=&quot;#000000&quot;&gt;&lt;i style=&quot;font-size: 20px;&quot;&gt;$$(C_{mm}(h^{mm}))$$&lt;/i&gt;&lt;/font&gt;&lt;/div&gt;" style="rounded=0;whiteSpace=wrap;html=1;fillColor=#56B4E9;strokeColor=#000000;spacingTop=13;" parent="Y7QLgJ6ppj0nBjB0C8vn-85" vertex="1">
          <mxGeometry y="560" width="560" height="110" as="geometry" />
        </mxCell>
        <mxCell id="vZfWUssc-C61SxAlqwz5-9" value="&lt;div style=&quot;&quot;&gt;&lt;span style=&quot;font-size: 30px;&quot;&gt;&lt;font color=&quot;#000000&quot;&gt;Modality n&lt;/font&gt;&lt;/span&gt;&lt;/div&gt;&lt;div style=&quot;&quot;&gt;&lt;span style=&quot;font-size: 30px;&quot;&gt;&lt;font color=&quot;#000000&quot;&gt;Encoder&lt;/font&gt;&lt;/span&gt;&lt;/div&gt;&lt;i style=&quot;color: rgb(0, 0, 0);&quot;&gt;&lt;font style=&quot;font-size: 20px;&quot;&gt;$$(F_{m_n}(m_n))$$&amp;nbsp;&lt;/font&gt;&lt;/i&gt;" style="whiteSpace=wrap;html=1;aspect=fixed;fillColor=#F0E442;strokeColor=#000000;spacingTop=30;" parent="Y7QLgJ6ppj0nBjB0C8vn-85" vertex="1">
          <mxGeometry x="400" y="160" width="160" height="160" as="geometry" />
        </mxCell>
        <mxCell id="Y7QLgJ6ppj0nBjB0C8vn-9" value="" style="endArrow=classic;html=1;rounded=0;entryX=0.143;entryY=0;entryDx=0;entryDy=0;entryPerimeter=0;" edge="1" parent="Y7QLgJ6ppj0nBjB0C8vn-85">
          <mxGeometry width="50" height="50" relative="1" as="geometry">
            <mxPoint x="80" y="130" as="sourcePoint" />
            <mxPoint x="79.82999999999998" y="160" as="targetPoint" />
          </mxGeometry>
        </mxCell>
        <mxCell id="Y7QLgJ6ppj0nBjB0C8vn-17" value="&lt;span style=&quot;font-size: 26px;&quot;&gt;Prediction&lt;/span&gt;" style="text;html=1;align=center;verticalAlign=middle;resizable=0;points=[];autosize=1;strokeColor=none;fillColor=none;" vertex="1" parent="Y7QLgJ6ppj0nBjB0C8vn-85">
          <mxGeometry x="210" y="720" width="140" height="40" as="geometry" />
        </mxCell>
        <mxCell id="Y7QLgJ6ppj0nBjB0C8vn-18" value="&lt;i style=&quot;font-size: 23px;&quot;&gt;$$m_1$$&lt;/i&gt;" style="text;html=1;align=center;verticalAlign=middle;resizable=0;points=[];autosize=1;strokeColor=none;fillColor=none;fontSize=23;" vertex="1" parent="Y7QLgJ6ppj0nBjB0C8vn-85">
          <mxGeometry x="20" y="93" width="120" height="40" as="geometry" />
        </mxCell>
        <mxCell id="Y7QLgJ6ppj0nBjB0C8vn-20" value="" style="endArrow=none;html=1;rounded=0;exitX=0.149;exitY=1.008;exitDx=0;exitDy=0;exitPerimeter=0;entryX=0.531;entryY=0.175;entryDx=0;entryDy=0;entryPerimeter=0;" edge="1" parent="Y7QLgJ6ppj0nBjB0C8vn-85">
          <mxGeometry width="50" height="50" relative="1" as="geometry">
            <mxPoint x="79.83000000000004" y="79.99999999999989" as="sourcePoint" />
            <mxPoint x="79.79999999999984" y="99.36000000000001" as="targetPoint" />
          </mxGeometry>
        </mxCell>
        <mxCell id="Y7QLgJ6ppj0nBjB0C8vn-23" value="" style="endArrow=classic;html=1;rounded=0;entryX=0.143;entryY=0;entryDx=0;entryDy=0;entryPerimeter=0;" edge="1" parent="Y7QLgJ6ppj0nBjB0C8vn-85">
          <mxGeometry width="50" height="50" relative="1" as="geometry">
            <mxPoint x="480" y="130" as="sourcePoint" />
            <mxPoint x="479.83" y="160" as="targetPoint" />
          </mxGeometry>
        </mxCell>
        <mxCell id="Y7QLgJ6ppj0nBjB0C8vn-24" value="&lt;i style=&quot;font-size: 23px;&quot;&gt;$$m_n$$&lt;/i&gt;" style="text;html=1;align=center;verticalAlign=middle;resizable=0;points=[];autosize=1;strokeColor=none;fillColor=none;fontSize=23;" vertex="1" parent="Y7QLgJ6ppj0nBjB0C8vn-85">
          <mxGeometry x="420" y="93" width="120" height="40" as="geometry" />
        </mxCell>
        <mxCell id="Y7QLgJ6ppj0nBjB0C8vn-25" value="" style="endArrow=none;html=1;rounded=0;exitX=0.149;exitY=1.008;exitDx=0;exitDy=0;exitPerimeter=0;entryX=0.531;entryY=0.175;entryDx=0;entryDy=0;entryPerimeter=0;" edge="1" parent="Y7QLgJ6ppj0nBjB0C8vn-85">
          <mxGeometry width="50" height="50" relative="1" as="geometry">
            <mxPoint x="479.83000000000004" y="79.99999999999989" as="sourcePoint" />
            <mxPoint x="479.79999999999984" y="99.36000000000001" as="targetPoint" />
          </mxGeometry>
        </mxCell>
        <mxCell id="Y7QLgJ6ppj0nBjB0C8vn-27" value="" style="endArrow=classic;html=1;rounded=0;entryX=0.143;entryY=0;entryDx=0;entryDy=0;entryPerimeter=0;" edge="1" parent="Y7QLgJ6ppj0nBjB0C8vn-85">
          <mxGeometry width="50" height="50" relative="1" as="geometry">
            <mxPoint x="80" y="370" as="sourcePoint" />
            <mxPoint x="79.82999999999998" y="400" as="targetPoint" />
          </mxGeometry>
        </mxCell>
        <mxCell id="Y7QLgJ6ppj0nBjB0C8vn-28" value="&lt;i style=&quot;font-size: 23px;&quot;&gt;$$h^{m_1}$$&lt;/i&gt;" style="text;html=1;align=center;verticalAlign=middle;resizable=0;points=[];autosize=1;strokeColor=none;fillColor=none;fontSize=23;" vertex="1" parent="Y7QLgJ6ppj0nBjB0C8vn-85">
          <mxGeometry y="340" width="160" height="40" as="geometry" />
        </mxCell>
        <mxCell id="Y7QLgJ6ppj0nBjB0C8vn-29" value="" style="endArrow=none;html=1;rounded=0;exitX=0.149;exitY=1.008;exitDx=0;exitDy=0;exitPerimeter=0;entryX=0.531;entryY=0.175;entryDx=0;entryDy=0;entryPerimeter=0;" edge="1" parent="Y7QLgJ6ppj0nBjB0C8vn-85">
          <mxGeometry width="50" height="50" relative="1" as="geometry">
            <mxPoint x="79.83000000000004" y="319.9999999999999" as="sourcePoint" />
            <mxPoint x="79.79999999999984" y="339.36" as="targetPoint" />
          </mxGeometry>
        </mxCell>
        <mxCell id="Y7QLgJ6ppj0nBjB0C8vn-32" value="" style="endArrow=classic;html=1;rounded=0;entryX=0.143;entryY=0;entryDx=0;entryDy=0;entryPerimeter=0;" edge="1" parent="Y7QLgJ6ppj0nBjB0C8vn-85">
          <mxGeometry width="50" height="50" relative="1" as="geometry">
            <mxPoint x="480" y="370" as="sourcePoint" />
            <mxPoint x="479.83" y="400" as="targetPoint" />
          </mxGeometry>
        </mxCell>
        <mxCell id="Y7QLgJ6ppj0nBjB0C8vn-33" value="&lt;i style=&quot;font-size: 23px;&quot;&gt;$$h^{m_n}$$&lt;/i&gt;" style="text;html=1;align=center;verticalAlign=middle;resizable=0;points=[];autosize=1;strokeColor=none;fillColor=none;fontSize=23;" vertex="1" parent="Y7QLgJ6ppj0nBjB0C8vn-85">
          <mxGeometry x="400" y="340" width="160" height="40" as="geometry" />
        </mxCell>
        <mxCell id="Y7QLgJ6ppj0nBjB0C8vn-34" value="" style="endArrow=none;html=1;rounded=0;exitX=0.149;exitY=1.008;exitDx=0;exitDy=0;exitPerimeter=0;entryX=0.531;entryY=0.175;entryDx=0;entryDy=0;entryPerimeter=0;" edge="1" parent="Y7QLgJ6ppj0nBjB0C8vn-85">
          <mxGeometry width="50" height="50" relative="1" as="geometry">
            <mxPoint x="479.83000000000004" y="319.9999999999999" as="sourcePoint" />
            <mxPoint x="479.79999999999984" y="339.36" as="targetPoint" />
          </mxGeometry>
        </mxCell>
        <mxCell id="Y7QLgJ6ppj0nBjB0C8vn-39" value="" style="endArrow=classic;html=1;rounded=0;entryX=0.143;entryY=0;entryDx=0;entryDy=0;entryPerimeter=0;" edge="1" parent="Y7QLgJ6ppj0nBjB0C8vn-85">
          <mxGeometry width="50" height="50" relative="1" as="geometry">
            <mxPoint x="280" y="530" as="sourcePoint" />
            <mxPoint x="279.83" y="560" as="targetPoint" />
          </mxGeometry>
        </mxCell>
        <mxCell id="Y7QLgJ6ppj0nBjB0C8vn-40" value="&lt;i style=&quot;font-size: 23px;&quot;&gt;$$h^{mm}$$&lt;/i&gt;" style="text;html=1;align=center;verticalAlign=middle;resizable=0;points=[];autosize=1;strokeColor=none;fillColor=none;fontSize=23;" vertex="1" parent="Y7QLgJ6ppj0nBjB0C8vn-85">
          <mxGeometry x="205" y="500" width="150" height="40" as="geometry" />
        </mxCell>
        <mxCell id="Y7QLgJ6ppj0nBjB0C8vn-41" value="" style="endArrow=none;html=1;rounded=0;exitX=0.149;exitY=1.008;exitDx=0;exitDy=0;exitPerimeter=0;entryX=0.531;entryY=0.175;entryDx=0;entryDy=0;entryPerimeter=0;" edge="1" parent="Y7QLgJ6ppj0nBjB0C8vn-85">
          <mxGeometry width="50" height="50" relative="1" as="geometry">
            <mxPoint x="279.83000000000004" y="479.9999999999999" as="sourcePoint" />
            <mxPoint x="279.79999999999984" y="499.36" as="targetPoint" />
          </mxGeometry>
        </mxCell>
        <mxCell id="Y7QLgJ6ppj0nBjB0C8vn-42" value="" style="endArrow=classic;html=1;rounded=0;exitX=0.5;exitY=1;exitDx=0;exitDy=0;" edge="1" parent="Y7QLgJ6ppj0nBjB0C8vn-85" source="vZfWUssc-C61SxAlqwz5-8">
          <mxGeometry width="50" height="50" relative="1" as="geometry">
            <mxPoint x="280" y="760" as="sourcePoint" />
            <mxPoint x="280" y="720" as="targetPoint" />
          </mxGeometry>
        </mxCell>
        <mxCell id="Y7QLgJ6ppj0nBjB0C8vn-43" value="&lt;font style=&quot;font-size: 25px;&quot;&gt;$$\hat{y}$$&lt;/font&gt;" style="text;html=1;align=center;verticalAlign=middle;resizable=0;points=[];autosize=1;strokeColor=none;fillColor=none;" vertex="1" parent="Y7QLgJ6ppj0nBjB0C8vn-85">
          <mxGeometry x="205" y="750" width="150" height="40" as="geometry" />
        </mxCell>
        <mxCell id="Y7QLgJ6ppj0nBjB0C8vn-44" value="&lt;font style=&quot;font-size: 20px;&quot;&gt;$$(D)$$&lt;/font&gt;" style="text;html=1;align=center;verticalAlign=middle;resizable=0;points=[];autosize=1;strokeColor=none;fillColor=none;fontSize=15;" vertex="1" parent="Y7QLgJ6ppj0nBjB0C8vn-85">
          <mxGeometry x="230" y="45" width="100" height="40" as="geometry" />
        </mxCell>
        <mxCell id="Y7QLgJ6ppj0nBjB0C8vn-84" value="&lt;font style=&quot;font-size: 30px;&quot;&gt;$$\ldots$$&lt;/font&gt;" style="text;html=1;align=center;verticalAlign=middle;resizable=0;points=[];autosize=1;strokeColor=none;fillColor=none;" vertex="1" parent="Y7QLgJ6ppj0nBjB0C8vn-85">
          <mxGeometry x="200" y="215" width="160" height="50" as="geometry" />
        </mxCell>
        <mxCell id="Y7QLgJ6ppj0nBjB0C8vn-195" value="" style="group" vertex="1" connectable="0" parent="1">
          <mxGeometry x="-30" y="280" width="610" height="790" as="geometry" />
        </mxCell>
        <mxCell id="Y7QLgJ6ppj0nBjB0C8vn-122" value="" style="rounded=0;whiteSpace=wrap;html=1;fillColor=#9AC7BF;" vertex="1" parent="Y7QLgJ6ppj0nBjB0C8vn-195">
          <mxGeometry y="160" width="380" height="510" as="geometry" />
        </mxCell>
        <mxCell id="Y7QLgJ6ppj0nBjB0C8vn-119" value="" style="rounded=0;whiteSpace=wrap;html=1;fillColor=#CC79A7;" vertex="1" parent="Y7QLgJ6ppj0nBjB0C8vn-195">
          <mxGeometry x="20" y="400" width="340" height="250" as="geometry" />
        </mxCell>
        <mxCell id="Y7QLgJ6ppj0nBjB0C8vn-82" value="&lt;i style=&quot;&quot;&gt;&lt;font style=&quot;font-size: 25px;&quot;&gt;$$h^\hat{m&#39;}$$&lt;/font&gt;&lt;/i&gt;" style="text;html=1;align=center;verticalAlign=middle;resizable=0;points=[];autosize=1;strokeColor=none;fillColor=none;fontSize=23;" vertex="1" parent="Y7QLgJ6ppj0nBjB0C8vn-195">
          <mxGeometry x="95" y="717" width="190" height="40" as="geometry" />
        </mxCell>
        <mxCell id="Y7QLgJ6ppj0nBjB0C8vn-83" value="" style="endArrow=none;html=1;rounded=0;exitX=0.5;exitY=1;exitDx=0;exitDy=0;" edge="1" parent="Y7QLgJ6ppj0nBjB0C8vn-195" source="Y7QLgJ6ppj0nBjB0C8vn-119" target="Y7QLgJ6ppj0nBjB0C8vn-82">
          <mxGeometry width="50" height="50" relative="1" as="geometry">
            <mxPoint x="189.92000000000002" y="670" as="sourcePoint" />
            <mxPoint x="190" y="690" as="targetPoint" />
          </mxGeometry>
        </mxCell>
        <mxCell id="Y7QLgJ6ppj0nBjB0C8vn-87" value="&lt;font color=&quot;#000000&quot; style=&quot;font-size: 28px;&quot;&gt;Multimodal Data Set&amp;nbsp;&lt;/font&gt;&lt;div style=&quot;&quot;&gt;&lt;br&gt;&lt;/div&gt;" style="rounded=0;whiteSpace=wrap;html=1;fillColor=#009E73;strokeColor=#000000;" vertex="1" parent="Y7QLgJ6ppj0nBjB0C8vn-195">
          <mxGeometry width="560" height="80" as="geometry" />
        </mxCell>
        <mxCell id="Y7QLgJ6ppj0nBjB0C8vn-88" value="&lt;div style=&quot;font-size: 27px;&quot;&gt;&lt;font style=&quot;font-size: 27px;&quot; color=&quot;#000000&quot;&gt;Modality 1&lt;/font&gt;&lt;/div&gt;&lt;div style=&quot;font-size: 27px;&quot;&gt;&lt;font style=&quot;font-size: 27px;&quot; color=&quot;#000000&quot;&gt;Encoder&lt;/font&gt;&lt;/div&gt;&lt;i style=&quot;color: rgb(0, 0, 0);&quot;&gt;&lt;font style=&quot;font-size: 20px;&quot;&gt;$$(F^*_{m_1}(m_1))$$&amp;nbsp;&lt;/font&gt;&lt;/i&gt;" style="whiteSpace=wrap;html=1;aspect=fixed;fillColor=#0072B2;fontColor=#ffffff;strokeColor=#000000;verticalAlign=middle;labelPosition=center;verticalLabelPosition=middle;align=center;spacingTop=30;" vertex="1" parent="Y7QLgJ6ppj0nBjB0C8vn-195">
          <mxGeometry x="20" y="180" width="140" height="140" as="geometry" />
        </mxCell>
        <mxCell id="Y7QLgJ6ppj0nBjB0C8vn-91" value="&lt;div style=&quot;&quot;&gt;&lt;span style=&quot;font-size: 30px;&quot;&gt;&lt;font color=&quot;#000000&quot;&gt;Modality n&lt;/font&gt;&lt;/span&gt;&lt;/div&gt;&lt;div style=&quot;&quot;&gt;&lt;span style=&quot;font-size: 30px;&quot;&gt;&lt;font color=&quot;#000000&quot;&gt;Encoder&lt;/font&gt;&lt;/span&gt;&lt;/div&gt;&lt;i style=&quot;color: rgb(0, 0, 0);&quot;&gt;&lt;font style=&quot;font-size: 20px;&quot;&gt;$$(F^*_{m&#39;}(m&#39;))$$&amp;nbsp;&lt;/font&gt;&lt;/i&gt;" style="whiteSpace=wrap;html=1;aspect=fixed;fillColor=#E69F00;strokeColor=#000000;spacingTop=30;" vertex="1" parent="Y7QLgJ6ppj0nBjB0C8vn-195">
          <mxGeometry x="400" y="160" width="160" height="160" as="geometry" />
        </mxCell>
        <mxCell id="Y7QLgJ6ppj0nBjB0C8vn-92" value="" style="endArrow=classic;html=1;rounded=0;entryX=0.143;entryY=0;entryDx=0;entryDy=0;entryPerimeter=0;" edge="1" parent="Y7QLgJ6ppj0nBjB0C8vn-195">
          <mxGeometry width="50" height="50" relative="1" as="geometry">
            <mxPoint x="90" y="130" as="sourcePoint" />
            <mxPoint x="89.82999999999998" y="160" as="targetPoint" />
          </mxGeometry>
        </mxCell>
        <mxCell id="Y7QLgJ6ppj0nBjB0C8vn-94" value="&lt;i style=&quot;font-size: 23px;&quot;&gt;$$m_1$$&lt;/i&gt;" style="text;html=1;align=center;verticalAlign=middle;resizable=0;points=[];autosize=1;strokeColor=none;fillColor=none;fontSize=23;" vertex="1" parent="Y7QLgJ6ppj0nBjB0C8vn-195">
          <mxGeometry x="30" y="93" width="120" height="40" as="geometry" />
        </mxCell>
        <mxCell id="Y7QLgJ6ppj0nBjB0C8vn-95" value="" style="endArrow=none;html=1;rounded=0;exitX=0.149;exitY=1.008;exitDx=0;exitDy=0;exitPerimeter=0;entryX=0.531;entryY=0.175;entryDx=0;entryDy=0;entryPerimeter=0;" edge="1" parent="Y7QLgJ6ppj0nBjB0C8vn-195">
          <mxGeometry width="50" height="50" relative="1" as="geometry">
            <mxPoint x="89.83000000000004" y="79.99999999999989" as="sourcePoint" />
            <mxPoint x="89.79999999999984" y="99.36000000000001" as="targetPoint" />
          </mxGeometry>
        </mxCell>
        <mxCell id="Y7QLgJ6ppj0nBjB0C8vn-96" value="" style="endArrow=classic;html=1;rounded=0;entryX=0.143;entryY=0;entryDx=0;entryDy=0;entryPerimeter=0;" edge="1" parent="Y7QLgJ6ppj0nBjB0C8vn-195">
          <mxGeometry width="50" height="50" relative="1" as="geometry">
            <mxPoint x="480" y="130" as="sourcePoint" />
            <mxPoint x="479.8299999999999" y="160" as="targetPoint" />
          </mxGeometry>
        </mxCell>
        <mxCell id="Y7QLgJ6ppj0nBjB0C8vn-97" value="&lt;i style=&quot;font-size: 23px;&quot;&gt;$$m&#39;$$&lt;/i&gt;" style="text;html=1;align=center;verticalAlign=middle;resizable=0;points=[];autosize=1;strokeColor=none;fillColor=none;fontSize=23;" vertex="1" parent="Y7QLgJ6ppj0nBjB0C8vn-195">
          <mxGeometry x="430" y="93" width="100" height="40" as="geometry" />
        </mxCell>
        <mxCell id="Y7QLgJ6ppj0nBjB0C8vn-98" value="" style="endArrow=none;html=1;rounded=0;exitX=0.149;exitY=1.008;exitDx=0;exitDy=0;exitPerimeter=0;entryX=0.531;entryY=0.175;entryDx=0;entryDy=0;entryPerimeter=0;" edge="1" parent="Y7QLgJ6ppj0nBjB0C8vn-195">
          <mxGeometry width="50" height="50" relative="1" as="geometry">
            <mxPoint x="479.83000000000004" y="79.99999999999989" as="sourcePoint" />
            <mxPoint x="479.79999999999984" y="99.36000000000001" as="targetPoint" />
          </mxGeometry>
        </mxCell>
        <mxCell id="Y7QLgJ6ppj0nBjB0C8vn-99" value="" style="endArrow=classic;html=1;rounded=0;entryX=0.143;entryY=0;entryDx=0;entryDy=0;entryPerimeter=0;" edge="1" parent="Y7QLgJ6ppj0nBjB0C8vn-195">
          <mxGeometry width="50" height="50" relative="1" as="geometry">
            <mxPoint x="90" y="370" as="sourcePoint" />
            <mxPoint x="89.82999999999998" y="400" as="targetPoint" />
          </mxGeometry>
        </mxCell>
        <mxCell id="Y7QLgJ6ppj0nBjB0C8vn-100" value="&lt;i style=&quot;font-size: 23px;&quot;&gt;$$h^{m_1}$$&lt;/i&gt;" style="text;html=1;align=center;verticalAlign=middle;resizable=0;points=[];autosize=1;strokeColor=none;fillColor=none;fontSize=23;" vertex="1" parent="Y7QLgJ6ppj0nBjB0C8vn-195">
          <mxGeometry x="10" y="340" width="160" height="40" as="geometry" />
        </mxCell>
        <mxCell id="Y7QLgJ6ppj0nBjB0C8vn-101" value="" style="endArrow=none;html=1;rounded=0;exitX=0.149;exitY=1.008;exitDx=0;exitDy=0;exitPerimeter=0;entryX=0.531;entryY=0.175;entryDx=0;entryDy=0;entryPerimeter=0;" edge="1" parent="Y7QLgJ6ppj0nBjB0C8vn-195">
          <mxGeometry width="50" height="50" relative="1" as="geometry">
            <mxPoint x="89.83000000000004" y="319.9999999999999" as="sourcePoint" />
            <mxPoint x="89.79999999999984" y="339.3600000000001" as="targetPoint" />
          </mxGeometry>
        </mxCell>
        <mxCell id="Y7QLgJ6ppj0nBjB0C8vn-102" value="" style="endArrow=classic;html=1;rounded=0;" edge="1" parent="Y7QLgJ6ppj0nBjB0C8vn-195">
          <mxGeometry width="50" height="50" relative="1" as="geometry">
            <mxPoint x="480" y="370" as="sourcePoint" />
            <mxPoint x="480" y="680" as="targetPoint" />
          </mxGeometry>
        </mxCell>
        <mxCell id="Y7QLgJ6ppj0nBjB0C8vn-103" value="&lt;i style=&quot;font-size: 23px;&quot;&gt;$$h^{m&#39;}$$&lt;/i&gt;" style="text;html=1;align=center;verticalAlign=middle;resizable=0;points=[];autosize=1;strokeColor=none;fillColor=none;fontSize=23;" vertex="1" parent="Y7QLgJ6ppj0nBjB0C8vn-195">
          <mxGeometry x="410" y="340" width="140" height="40" as="geometry" />
        </mxCell>
        <mxCell id="Y7QLgJ6ppj0nBjB0C8vn-104" value="" style="endArrow=none;html=1;rounded=0;exitX=0.149;exitY=1.008;exitDx=0;exitDy=0;exitPerimeter=0;entryX=0.531;entryY=0.175;entryDx=0;entryDy=0;entryPerimeter=0;" edge="1" parent="Y7QLgJ6ppj0nBjB0C8vn-195">
          <mxGeometry width="50" height="50" relative="1" as="geometry">
            <mxPoint x="479.83000000000004" y="319.9999999999999" as="sourcePoint" />
            <mxPoint x="479.79999999999984" y="339.3600000000001" as="targetPoint" />
          </mxGeometry>
        </mxCell>
        <mxCell id="Y7QLgJ6ppj0nBjB0C8vn-110" value="$$(D)$$" style="text;html=1;align=center;verticalAlign=middle;resizable=0;points=[];autosize=1;strokeColor=none;fillColor=none;fontSize=20;" vertex="1" parent="Y7QLgJ6ppj0nBjB0C8vn-195">
          <mxGeometry x="230" y="45" width="100" height="40" as="geometry" />
        </mxCell>
        <mxCell id="Y7QLgJ6ppj0nBjB0C8vn-111" value="&lt;font style=&quot;font-size: 21px;&quot;&gt;$$\ldots$$&lt;/font&gt;" style="text;html=1;align=center;verticalAlign=middle;resizable=0;points=[];autosize=1;strokeColor=none;fillColor=none;" vertex="1" parent="Y7QLgJ6ppj0nBjB0C8vn-195">
          <mxGeometry x="130" y="220" width="120" height="40" as="geometry" />
        </mxCell>
        <mxCell id="Y7QLgJ6ppj0nBjB0C8vn-112" value="&lt;div style=&quot;font-size: 24px;&quot;&gt;&lt;font style=&quot;font-size: 24px;&quot; color=&quot;#000000&quot;&gt;Modality&amp;nbsp;&lt;/font&gt;&lt;/div&gt;&lt;div style=&quot;font-size: 24px;&quot;&gt;&lt;font style=&quot;font-size: 24px;&quot; color=&quot;#000000&quot;&gt;n-1&lt;/font&gt;&lt;/div&gt;&lt;div style=&quot;font-size: 24px;&quot;&gt;&lt;font style=&quot;font-size: 24px;&quot; color=&quot;#000000&quot;&gt;Encoder&lt;/font&gt;&lt;/div&gt;&lt;font style=&quot;font-size: 18px;&quot;&gt;&lt;i style=&quot;color: rgb(0, 0, 0);&quot;&gt;&lt;font style=&quot;font-size: 18px;&quot;&gt;$$(F^*_{m_{n-1}}(m_{n-1}))$$&lt;/font&gt;&lt;/i&gt;&lt;i style=&quot;color: rgb(0, 0, 0);&quot;&gt;&amp;nbsp;&lt;/i&gt;&lt;/font&gt;" style="whiteSpace=wrap;html=1;aspect=fixed;fillColor=#F0E442;strokeColor=#000000;spacingTop=35;" vertex="1" parent="Y7QLgJ6ppj0nBjB0C8vn-195">
          <mxGeometry x="220" y="180" width="140" height="140" as="geometry" />
        </mxCell>
        <mxCell id="Y7QLgJ6ppj0nBjB0C8vn-113" value="" style="endArrow=classic;html=1;rounded=0;entryX=0.143;entryY=0;entryDx=0;entryDy=0;entryPerimeter=0;" edge="1" parent="Y7QLgJ6ppj0nBjB0C8vn-195">
          <mxGeometry width="50" height="50" relative="1" as="geometry">
            <mxPoint x="290" y="130" as="sourcePoint" />
            <mxPoint x="289.8299999999999" y="160" as="targetPoint" />
          </mxGeometry>
        </mxCell>
        <mxCell id="Y7QLgJ6ppj0nBjB0C8vn-114" value="&lt;i style=&quot;font-size: 23px;&quot;&gt;$$m_{n-1}$$&lt;/i&gt;" style="text;html=1;align=center;verticalAlign=middle;resizable=0;points=[];autosize=1;strokeColor=none;fillColor=none;fontSize=23;" vertex="1" parent="Y7QLgJ6ppj0nBjB0C8vn-195">
          <mxGeometry x="210" y="93" width="160" height="40" as="geometry" />
        </mxCell>
        <mxCell id="Y7QLgJ6ppj0nBjB0C8vn-115" value="" style="endArrow=none;html=1;rounded=0;exitX=0.149;exitY=1.008;exitDx=0;exitDy=0;exitPerimeter=0;entryX=0.531;entryY=0.175;entryDx=0;entryDy=0;entryPerimeter=0;" edge="1" parent="Y7QLgJ6ppj0nBjB0C8vn-195">
          <mxGeometry width="50" height="50" relative="1" as="geometry">
            <mxPoint x="289.83000000000004" y="79.99999999999989" as="sourcePoint" />
            <mxPoint x="289.79999999999984" y="99.36000000000001" as="targetPoint" />
          </mxGeometry>
        </mxCell>
        <mxCell id="Y7QLgJ6ppj0nBjB0C8vn-116" value="" style="endArrow=classic;html=1;rounded=0;entryX=0.143;entryY=0;entryDx=0;entryDy=0;entryPerimeter=0;" edge="1" parent="Y7QLgJ6ppj0nBjB0C8vn-195">
          <mxGeometry width="50" height="50" relative="1" as="geometry">
            <mxPoint x="290" y="370" as="sourcePoint" />
            <mxPoint x="289.8299999999999" y="400" as="targetPoint" />
          </mxGeometry>
        </mxCell>
        <mxCell id="Y7QLgJ6ppj0nBjB0C8vn-117" value="&lt;i style=&quot;font-size: 23px;&quot;&gt;$$h^{m_{n-1}}$$&lt;/i&gt;" style="text;html=1;align=center;verticalAlign=middle;resizable=0;points=[];autosize=1;strokeColor=none;fillColor=none;fontSize=23;" vertex="1" parent="Y7QLgJ6ppj0nBjB0C8vn-195">
          <mxGeometry x="195" y="340" width="190" height="40" as="geometry" />
        </mxCell>
        <mxCell id="Y7QLgJ6ppj0nBjB0C8vn-118" value="" style="endArrow=none;html=1;rounded=0;exitX=0.149;exitY=1.008;exitDx=0;exitDy=0;exitPerimeter=0;entryX=0.531;entryY=0.175;entryDx=0;entryDy=0;entryPerimeter=0;" edge="1" parent="Y7QLgJ6ppj0nBjB0C8vn-195">
          <mxGeometry width="50" height="50" relative="1" as="geometry">
            <mxPoint x="289.83000000000004" y="319.9999999999999" as="sourcePoint" />
            <mxPoint x="289.79999999999984" y="339.3600000000001" as="targetPoint" />
          </mxGeometry>
        </mxCell>
        <mxCell id="Y7QLgJ6ppj0nBjB0C8vn-120" value="&lt;font style=&quot;font-size: 25px;&quot; color=&quot;#000000&quot;&gt;Fusion Layer&lt;/font&gt;&lt;div style=&quot;font-size: 25px;&quot;&gt;&lt;br&gt;&lt;/div&gt;" style="rounded=0;whiteSpace=wrap;html=1;fillColor=#56B4E9;" vertex="1" parent="Y7QLgJ6ppj0nBjB0C8vn-195">
          <mxGeometry x="40" y="420" width="300" height="60" as="geometry" />
        </mxCell>
        <mxCell id="Y7QLgJ6ppj0nBjB0C8vn-121" value="&lt;font style=&quot;font-size: 25px;&quot;&gt;Multimodal Network&lt;/font&gt;" style="rounded=0;whiteSpace=wrap;html=1;fillColor=#56B4E9;" vertex="1" parent="Y7QLgJ6ppj0nBjB0C8vn-195">
          <mxGeometry x="40" y="530" width="300" height="100" as="geometry" />
        </mxCell>
        <mxCell id="Y7QLgJ6ppj0nBjB0C8vn-123" value="&lt;font size=&quot;1&quot; style=&quot;&quot;&gt;&lt;u style=&quot;font-size: 26px;&quot;&gt;C-MAM&lt;/u&gt;&lt;/font&gt;" style="text;html=1;align=center;verticalAlign=middle;resizable=0;points=[];autosize=1;strokeColor=none;fillColor=none;" vertex="1" parent="Y7QLgJ6ppj0nBjB0C8vn-195">
          <mxGeometry x="135" y="115" width="110" height="40" as="geometry" />
        </mxCell>
        <mxCell id="Y7QLgJ6ppj0nBjB0C8vn-125" value="&lt;font style=&quot;font-size: 23px;&quot;&gt;$$A$$&lt;/font&gt;" style="text;html=1;align=center;verticalAlign=middle;resizable=0;points=[];autosize=1;strokeColor=none;fillColor=none;fontSize=23;" vertex="1" parent="Y7QLgJ6ppj0nBjB0C8vn-195">
          <mxGeometry x="145" y="365" width="90" height="40" as="geometry" />
        </mxCell>
        <mxCell id="Y7QLgJ6ppj0nBjB0C8vn-132" value="&lt;font style=&quot;font-size: 21px;&quot;&gt;Reconstruction&lt;/font&gt;&lt;div style=&quot;font-size: 21px;&quot;&gt;&lt;font style=&quot;font-size: 21px;&quot;&gt;Loss&lt;/font&gt;&lt;br&gt;&lt;/div&gt;" style="text;html=1;align=center;verticalAlign=middle;resizable=0;points=[];autosize=1;strokeColor=none;fillColor=none;" vertex="1" parent="Y7QLgJ6ppj0nBjB0C8vn-195">
          <mxGeometry x="395" y="685" width="160" height="60" as="geometry" />
        </mxCell>
        <mxCell id="Y7QLgJ6ppj0nBjB0C8vn-135" value="&lt;i style=&quot;text-wrap: wrap;&quot;&gt;&lt;font style=&quot;font-size: 20px;&quot;&gt;$$(h^{m_1} \oplus \ldots \oplus h^{m_n})$$&lt;/font&gt;&lt;/i&gt;" style="text;html=1;align=center;verticalAlign=middle;resizable=0;points=[];autosize=1;strokeColor=none;fillColor=none;" vertex="1" parent="Y7QLgJ6ppj0nBjB0C8vn-195">
          <mxGeometry x="-10" y="445" width="400" height="40" as="geometry" />
        </mxCell>
        <mxCell id="Y7QLgJ6ppj0nBjB0C8vn-138" value="" style="endArrow=classic;html=1;rounded=0;" edge="1" parent="Y7QLgJ6ppj0nBjB0C8vn-195">
          <mxGeometry width="50" height="50" relative="1" as="geometry">
            <mxPoint x="190" y="510" as="sourcePoint" />
            <mxPoint x="189.82999999999998" y="530" as="targetPoint" />
          </mxGeometry>
        </mxCell>
        <mxCell id="Y7QLgJ6ppj0nBjB0C8vn-139" value="&lt;i style=&quot;&quot;&gt;&lt;font style=&quot;font-size: 15px;&quot;&gt;$$h^{mm}$$&lt;/font&gt;&lt;/i&gt;" style="text;html=1;align=center;verticalAlign=middle;resizable=0;points=[];autosize=1;strokeColor=none;fillColor=none;" vertex="1" parent="Y7QLgJ6ppj0nBjB0C8vn-195">
          <mxGeometry x="137" y="488" width="110" height="30" as="geometry" />
        </mxCell>
        <mxCell id="Y7QLgJ6ppj0nBjB0C8vn-140" value="" style="endArrow=none;html=1;rounded=0;exitX=0.149;exitY=1.008;exitDx=0;exitDy=0;exitPerimeter=0;" edge="1" parent="Y7QLgJ6ppj0nBjB0C8vn-195">
          <mxGeometry width="50" height="50" relative="1" as="geometry">
            <mxPoint x="189.83000000000004" y="479.9999999999999" as="sourcePoint" />
            <mxPoint x="190" y="490" as="targetPoint" />
          </mxGeometry>
        </mxCell>
        <mxCell id="Y7QLgJ6ppj0nBjB0C8vn-143" value="" style="endArrow=classic;html=1;rounded=0;" edge="1" parent="Y7QLgJ6ppj0nBjB0C8vn-195">
          <mxGeometry width="50" height="50" relative="1" as="geometry">
            <mxPoint x="230" y="740" as="sourcePoint" />
            <mxPoint x="415" y="740" as="targetPoint" />
          </mxGeometry>
        </mxCell>
        <mxCell id="Y7QLgJ6ppj0nBjB0C8vn-133" value="&lt;font style=&quot;font-size: 22px;&quot;&gt;$$L(h^{m&#39;}, h^\hat{m&#39;})$$&lt;/font&gt;" style="text;html=1;align=center;verticalAlign=middle;resizable=0;points=[];autosize=1;strokeColor=none;fillColor=none;" vertex="1" parent="Y7QLgJ6ppj0nBjB0C8vn-195">
          <mxGeometry x="340" y="740" width="270" height="40" as="geometry" />
        </mxCell>
        <mxCell id="Y7QLgJ6ppj0nBjB0C8vn-197" value="" style="endArrow=none;html=1;rounded=0;" edge="1" parent="1">
          <mxGeometry width="50" height="50" relative="1" as="geometry">
            <mxPoint x="-60" y="1080" as="sourcePoint" />
            <mxPoint x="-60" y="250" as="targetPoint" />
          </mxGeometry>
        </mxCell>
        <mxCell id="Y7QLgJ6ppj0nBjB0C8vn-199" value="" style="endArrow=none;html=1;rounded=0;" edge="1" parent="1">
          <mxGeometry width="50" height="50" relative="1" as="geometry">
            <mxPoint x="560" y="1070" as="sourcePoint" />
            <mxPoint x="560" y="240" as="targetPoint" />
          </mxGeometry>
        </mxCell>
        <mxCell id="Y7QLgJ6ppj0nBjB0C8vn-145" value="&lt;font color=&quot;#000000&quot; style=&quot;font-size: 28px;&quot;&gt;Multimodal Data Set&amp;nbsp;&lt;/font&gt;&lt;div style=&quot;&quot;&gt;&lt;br&gt;&lt;/div&gt;" style="rounded=0;whiteSpace=wrap;html=1;fillColor=#009E73;strokeColor=#000000;" vertex="1" parent="1">
          <mxGeometry x="600" y="280" width="560" height="80" as="geometry" />
        </mxCell>
        <mxCell id="Y7QLgJ6ppj0nBjB0C8vn-146" value="&lt;div&gt;&lt;span style=&quot;font-size: 30px;&quot;&gt;&lt;font color=&quot;#000000&quot;&gt;Modality a&lt;/font&gt;&lt;/span&gt;&lt;/div&gt;&lt;div&gt;&lt;span style=&quot;font-size: 30px;&quot;&gt;&lt;font color=&quot;#000000&quot;&gt;Encoder&lt;/font&gt;&lt;/span&gt;&lt;/div&gt;&lt;i style=&quot;color: rgb(0, 0, 0);&quot;&gt;&lt;font style=&quot;font-size: 20px;&quot;&gt;$$(F^*_{m_a}(m_a))$$&amp;nbsp;&lt;/font&gt;&lt;/i&gt;" style="whiteSpace=wrap;html=1;aspect=fixed;fillColor=#0072B2;fontColor=#ffffff;strokeColor=#000000;verticalAlign=middle;labelPosition=center;verticalLabelPosition=middle;align=center;spacingTop=30;" vertex="1" parent="1">
          <mxGeometry x="600" y="440" width="160" height="160" as="geometry" />
        </mxCell>
        <mxCell id="Y7QLgJ6ppj0nBjB0C8vn-147" value="&lt;font style=&quot;font-size: 28px;&quot; color=&quot;#000000&quot;&gt;Fusion Layer&lt;/font&gt;&lt;div style=&quot;&quot;&gt;&lt;i style=&quot;color: rgb(0, 0, 0);&quot;&gt;&lt;font style=&quot;font-size: 20px;&quot;&gt;$$(h^{m_a} \oplus h^{m_b})$$&lt;/font&gt;&lt;/i&gt;&lt;br&gt;&lt;/div&gt;" style="rounded=0;whiteSpace=wrap;html=1;strokeColor=#000000;fillColor=#56B4E9;spacingTop=39;" vertex="1" parent="1">
          <mxGeometry x="600" y="680" width="560" height="80" as="geometry" />
        </mxCell>
        <mxCell id="Y7QLgJ6ppj0nBjB0C8vn-148" value="&lt;font style=&quot;font-size: 28px;&quot; color=&quot;#000000&quot;&gt;Multimodal Network&lt;/font&gt;&lt;div style=&quot;&quot;&gt;&lt;font size=&quot;1&quot; style=&quot;&quot; color=&quot;#000000&quot;&gt;&lt;i style=&quot;font-size: 20px;&quot;&gt;$$(C^*_{mm}(h^{mm}))$$&lt;/i&gt;&lt;/font&gt;&lt;/div&gt;" style="rounded=0;whiteSpace=wrap;html=1;fillColor=#56B4E9;strokeColor=#000000;" vertex="1" parent="1">
          <mxGeometry x="600" y="840" width="560" height="110" as="geometry" />
        </mxCell>
        <mxCell id="Y7QLgJ6ppj0nBjB0C8vn-149" value="&lt;div style=&quot;&quot;&gt;&lt;span style=&quot;font-size: 30px;&quot;&gt;&lt;font color=&quot;#000000&quot;&gt;Modality b&lt;/font&gt;&lt;/span&gt;&lt;/div&gt;&lt;div style=&quot;&quot;&gt;&lt;span style=&quot;font-size: 30px;&quot;&gt;&lt;font color=&quot;#000000&quot;&gt;Encoder&lt;/font&gt;&lt;/span&gt;&lt;/div&gt;&lt;i style=&quot;&quot;&gt;&lt;font style=&quot;font-size: 20px;&quot;&gt;$$(F^*_{m_b}(m_b))$$&amp;nbsp;&lt;/font&gt;&lt;/i&gt;" style="whiteSpace=wrap;html=1;aspect=fixed;fillColor=#F0E442;strokeColor=#000000;spacingTop=30;" vertex="1" parent="1">
          <mxGeometry x="1000" y="440" width="160" height="160" as="geometry" />
        </mxCell>
        <mxCell id="Y7QLgJ6ppj0nBjB0C8vn-150" value="" style="endArrow=classic;html=1;rounded=0;entryX=0.143;entryY=0;entryDx=0;entryDy=0;entryPerimeter=0;" edge="1" parent="1">
          <mxGeometry width="50" height="50" relative="1" as="geometry">
            <mxPoint x="680" y="410" as="sourcePoint" />
            <mxPoint x="679.8299999999999" y="440" as="targetPoint" />
          </mxGeometry>
        </mxCell>
        <mxCell id="Y7QLgJ6ppj0nBjB0C8vn-151" value="&lt;span style=&quot;font-size: 26px;&quot;&gt;Prediction&lt;/span&gt;" style="text;html=1;align=center;verticalAlign=middle;resizable=0;points=[];autosize=1;strokeColor=none;fillColor=none;" vertex="1" parent="1">
          <mxGeometry x="810" y="1000" width="140" height="40" as="geometry" />
        </mxCell>
        <mxCell id="Y7QLgJ6ppj0nBjB0C8vn-152" value="&lt;i style=&quot;font-size: 23px;&quot;&gt;$$m_a$$&lt;/i&gt;" style="text;html=1;align=center;verticalAlign=middle;resizable=0;points=[];autosize=1;strokeColor=none;fillColor=none;fontSize=23;" vertex="1" parent="1">
          <mxGeometry x="620" y="370" width="120" height="40" as="geometry" />
        </mxCell>
        <mxCell id="Y7QLgJ6ppj0nBjB0C8vn-153" value="" style="endArrow=none;html=1;rounded=0;exitX=0.149;exitY=1.008;exitDx=0;exitDy=0;exitPerimeter=0;entryX=0.531;entryY=0.175;entryDx=0;entryDy=0;entryPerimeter=0;" edge="1" parent="1">
          <mxGeometry width="50" height="50" relative="1" as="geometry">
            <mxPoint x="679.83" y="359.9999999999999" as="sourcePoint" />
            <mxPoint x="679.7999999999998" y="379.36" as="targetPoint" />
          </mxGeometry>
        </mxCell>
        <mxCell id="Y7QLgJ6ppj0nBjB0C8vn-154" value="" style="endArrow=classic;html=1;rounded=0;entryX=0.143;entryY=0;entryDx=0;entryDy=0;entryPerimeter=0;" edge="1" parent="1">
          <mxGeometry width="50" height="50" relative="1" as="geometry">
            <mxPoint x="1080" y="410" as="sourcePoint" />
            <mxPoint x="1079.83" y="440" as="targetPoint" />
          </mxGeometry>
        </mxCell>
        <mxCell id="Y7QLgJ6ppj0nBjB0C8vn-155" value="&lt;i style=&quot;font-size: 23px;&quot;&gt;$$m_b$$&lt;/i&gt;" style="text;html=1;align=center;verticalAlign=middle;resizable=0;points=[];autosize=1;strokeColor=none;fillColor=none;fontSize=23;" vertex="1" parent="1">
          <mxGeometry x="1020" y="371" width="120" height="40" as="geometry" />
        </mxCell>
        <mxCell id="Y7QLgJ6ppj0nBjB0C8vn-156" value="" style="endArrow=none;html=1;rounded=0;exitX=0.149;exitY=1.008;exitDx=0;exitDy=0;exitPerimeter=0;entryX=0.531;entryY=0.175;entryDx=0;entryDy=0;entryPerimeter=0;" edge="1" parent="1">
          <mxGeometry width="50" height="50" relative="1" as="geometry">
            <mxPoint x="1079.83" y="359.9999999999999" as="sourcePoint" />
            <mxPoint x="1079.7999999999997" y="379.36" as="targetPoint" />
          </mxGeometry>
        </mxCell>
        <mxCell id="Y7QLgJ6ppj0nBjB0C8vn-157" value="" style="endArrow=classic;html=1;rounded=0;entryX=0.143;entryY=0;entryDx=0;entryDy=0;entryPerimeter=0;" edge="1" parent="1">
          <mxGeometry width="50" height="50" relative="1" as="geometry">
            <mxPoint x="680" y="650" as="sourcePoint" />
            <mxPoint x="679.8299999999999" y="680" as="targetPoint" />
          </mxGeometry>
        </mxCell>
        <mxCell id="Y7QLgJ6ppj0nBjB0C8vn-158" value="&lt;i style=&quot;font-size: 23px;&quot;&gt;$$h^{m_a}$$&lt;/i&gt;" style="text;html=1;align=center;verticalAlign=middle;resizable=0;points=[];autosize=1;strokeColor=none;fillColor=none;fontSize=23;" vertex="1" parent="1">
          <mxGeometry x="600" y="620" width="160" height="40" as="geometry" />
        </mxCell>
        <mxCell id="Y7QLgJ6ppj0nBjB0C8vn-159" value="" style="endArrow=none;html=1;rounded=0;exitX=0.149;exitY=1.008;exitDx=0;exitDy=0;exitPerimeter=0;entryX=0.531;entryY=0.175;entryDx=0;entryDy=0;entryPerimeter=0;" edge="1" parent="1">
          <mxGeometry width="50" height="50" relative="1" as="geometry">
            <mxPoint x="679.83" y="599.9999999999999" as="sourcePoint" />
            <mxPoint x="679.7999999999998" y="619.36" as="targetPoint" />
          </mxGeometry>
        </mxCell>
        <mxCell id="Y7QLgJ6ppj0nBjB0C8vn-160" value="" style="endArrow=classic;html=1;rounded=0;entryX=0.143;entryY=0;entryDx=0;entryDy=0;entryPerimeter=0;" edge="1" parent="1">
          <mxGeometry width="50" height="50" relative="1" as="geometry">
            <mxPoint x="1080" y="650" as="sourcePoint" />
            <mxPoint x="1079.83" y="680" as="targetPoint" />
          </mxGeometry>
        </mxCell>
        <mxCell id="Y7QLgJ6ppj0nBjB0C8vn-161" value="&lt;i style=&quot;font-size: 23px;&quot;&gt;$$h^{m_b}$$&lt;/i&gt;" style="text;html=1;align=center;verticalAlign=middle;resizable=0;points=[];autosize=1;strokeColor=none;fillColor=none;fontSize=23;" vertex="1" parent="1">
          <mxGeometry x="1000" y="620" width="160" height="40" as="geometry" />
        </mxCell>
        <mxCell id="Y7QLgJ6ppj0nBjB0C8vn-162" value="" style="endArrow=none;html=1;rounded=0;exitX=0.149;exitY=1.008;exitDx=0;exitDy=0;exitPerimeter=0;entryX=0.531;entryY=0.175;entryDx=0;entryDy=0;entryPerimeter=0;" edge="1" parent="1">
          <mxGeometry width="50" height="50" relative="1" as="geometry">
            <mxPoint x="1079.83" y="599.9999999999999" as="sourcePoint" />
            <mxPoint x="1079.7999999999997" y="619.36" as="targetPoint" />
          </mxGeometry>
        </mxCell>
        <mxCell id="Y7QLgJ6ppj0nBjB0C8vn-163" value="" style="endArrow=classic;html=1;rounded=0;entryX=0.143;entryY=0;entryDx=0;entryDy=0;entryPerimeter=0;" edge="1" parent="1">
          <mxGeometry width="50" height="50" relative="1" as="geometry">
            <mxPoint x="880" y="810" as="sourcePoint" />
            <mxPoint x="879.8299999999999" y="840" as="targetPoint" />
          </mxGeometry>
        </mxCell>
        <mxCell id="Y7QLgJ6ppj0nBjB0C8vn-164" value="&lt;i style=&quot;font-size: 23px;&quot;&gt;$$h^{mm}$$&lt;/i&gt;" style="text;html=1;align=center;verticalAlign=middle;resizable=0;points=[];autosize=1;strokeColor=none;fillColor=none;fontSize=23;" vertex="1" parent="1">
          <mxGeometry x="805" y="780" width="150" height="40" as="geometry" />
        </mxCell>
        <mxCell id="Y7QLgJ6ppj0nBjB0C8vn-165" value="" style="endArrow=none;html=1;rounded=0;exitX=0.149;exitY=1.008;exitDx=0;exitDy=0;exitPerimeter=0;entryX=0.531;entryY=0.175;entryDx=0;entryDy=0;entryPerimeter=0;" edge="1" parent="1">
          <mxGeometry width="50" height="50" relative="1" as="geometry">
            <mxPoint x="879.8299999999999" y="759.9999999999999" as="sourcePoint" />
            <mxPoint x="879.7999999999997" y="779.36" as="targetPoint" />
          </mxGeometry>
        </mxCell>
        <mxCell id="Y7QLgJ6ppj0nBjB0C8vn-166" value="" style="endArrow=classic;html=1;rounded=0;exitX=0.5;exitY=1;exitDx=0;exitDy=0;" edge="1" parent="1" source="Y7QLgJ6ppj0nBjB0C8vn-148">
          <mxGeometry width="50" height="50" relative="1" as="geometry">
            <mxPoint x="880" y="1040" as="sourcePoint" />
            <mxPoint x="880" y="1000" as="targetPoint" />
          </mxGeometry>
        </mxCell>
        <mxCell id="Y7QLgJ6ppj0nBjB0C8vn-167" value="&lt;font style=&quot;font-size: 25px;&quot;&gt;$$\hat{y}$$&lt;/font&gt;" style="text;html=1;align=center;verticalAlign=middle;resizable=0;points=[];autosize=1;strokeColor=none;fillColor=none;" vertex="1" parent="1">
          <mxGeometry x="805" y="1030" width="150" height="40" as="geometry" />
        </mxCell>
        <mxCell id="Y7QLgJ6ppj0nBjB0C8vn-168" value="&lt;font style=&quot;font-size: 20px;&quot;&gt;$$(D)$$&lt;/font&gt;" style="text;html=1;align=center;verticalAlign=middle;resizable=0;points=[];autosize=1;strokeColor=none;fillColor=none;fontSize=15;" vertex="1" parent="1">
          <mxGeometry x="830" y="325" width="100" height="40" as="geometry" />
        </mxCell>
        <mxCell id="Y7QLgJ6ppj0nBjB0C8vn-173" value="&lt;font style=&quot;font-size: 21px;&quot; color=&quot;#000000&quot;&gt;C-MAM&lt;/font&gt;&lt;div style=&quot;font-size: 21px;&quot;&gt;&lt;font style=&quot;font-size: 21px;&quot; color=&quot;#000000&quot;&gt;$$m_a\mapsto m_b$$&lt;/font&gt;&lt;/div&gt;" style="whiteSpace=wrap;html=1;aspect=fixed;fillColor=#9AC7BF;fontColor=#ffffff;strokeColor=#000000;verticalAlign=middle;labelPosition=center;verticalLabelPosition=middle;align=center;spacingTop=30;" vertex="1" parent="1">
          <mxGeometry x="764" y="490" width="110" height="110" as="geometry" />
        </mxCell>
        <mxCell id="Y7QLgJ6ppj0nBjB0C8vn-183" style="edgeStyle=orthogonalEdgeStyle;rounded=0;orthogonalLoop=1;jettySize=auto;html=1;endArrow=none;endFill=0;startArrow=classic;startFill=1;dashed=1;dashPattern=8 8;" edge="1" parent="1" source="Y7QLgJ6ppj0nBjB0C8vn-174">
          <mxGeometry relative="1" as="geometry">
            <mxPoint x="940" y="390" as="targetPoint" />
          </mxGeometry>
        </mxCell>
        <mxCell id="Y7QLgJ6ppj0nBjB0C8vn-174" value="&lt;font style=&quot;font-size: 21px;&quot; color=&quot;#000000&quot;&gt;C-MAM&lt;/font&gt;&lt;div style=&quot;font-size: 21px;&quot;&gt;&lt;font style=&quot;font-size: 21px;&quot; color=&quot;#000000&quot;&gt;$$m_b\mapsto m_a$$&lt;/font&gt;&lt;/div&gt;" style="whiteSpace=wrap;html=1;aspect=fixed;fillColor=#9AC7BF;fontColor=#ffffff;strokeColor=#000000;verticalAlign=middle;labelPosition=center;verticalLabelPosition=middle;align=center;spacingTop=30;" vertex="1" parent="1">
          <mxGeometry x="885" y="490" width="110" height="110" as="geometry" />
        </mxCell>
        <mxCell id="Y7QLgJ6ppj0nBjB0C8vn-186" value="" style="endArrow=none;html=1;rounded=0;entryX=0.227;entryY=0.475;entryDx=0;entryDy=0;entryPerimeter=0;dashed=1;dashPattern=8 8;" edge="1" parent="1" target="Y7QLgJ6ppj0nBjB0C8vn-155">
          <mxGeometry width="50" height="50" relative="1" as="geometry">
            <mxPoint x="940" y="390" as="sourcePoint" />
            <mxPoint x="985" y="340" as="targetPoint" />
          </mxGeometry>
        </mxCell>
        <mxCell id="Y7QLgJ6ppj0nBjB0C8vn-187" style="edgeStyle=orthogonalEdgeStyle;rounded=0;orthogonalLoop=1;jettySize=auto;html=1;endArrow=none;endFill=0;startArrow=classic;startFill=1;dashed=1;dashPattern=8 8;" edge="1" parent="1">
          <mxGeometry relative="1" as="geometry">
            <mxPoint x="820.6779661016944" y="390" as="targetPoint" />
            <mxPoint x="820.6779661016944" y="490" as="sourcePoint" />
          </mxGeometry>
        </mxCell>
        <mxCell id="Y7QLgJ6ppj0nBjB0C8vn-188" value="" style="endArrow=none;html=1;rounded=0;entryX=0.227;entryY=0.475;entryDx=0;entryDy=0;entryPerimeter=0;dashed=1;dashPattern=8 8;" edge="1" parent="1">
          <mxGeometry width="50" height="50" relative="1" as="geometry">
            <mxPoint x="706" y="390.82796610169487" as="sourcePoint" />
            <mxPoint x="821" y="390.82796610169487" as="targetPoint" />
          </mxGeometry>
        </mxCell>
        <mxCell id="Y7QLgJ6ppj0nBjB0C8vn-189" value="" style="endArrow=classic;html=1;rounded=0;entryX=0.143;entryY=0;entryDx=0;entryDy=0;entryPerimeter=0;dashed=1;dashPattern=8 8;" edge="1" parent="1">
          <mxGeometry width="50" height="50" relative="1" as="geometry">
            <mxPoint x="820" y="650" as="sourcePoint" />
            <mxPoint x="819.8299999999999" y="680" as="targetPoint" />
          </mxGeometry>
        </mxCell>
        <mxCell id="Y7QLgJ6ppj0nBjB0C8vn-190" value="&lt;i style=&quot;font-size: 23px;&quot;&gt;$$h^{\hat{m}_b}$$&lt;/i&gt;" style="text;html=1;align=center;verticalAlign=middle;resizable=0;points=[];autosize=1;strokeColor=none;fillColor=none;fontSize=23;" vertex="1" parent="1">
          <mxGeometry x="715" y="620" width="210" height="40" as="geometry" />
        </mxCell>
        <mxCell id="Y7QLgJ6ppj0nBjB0C8vn-191" value="" style="endArrow=none;html=1;rounded=0;exitX=0.149;exitY=1.008;exitDx=0;exitDy=0;exitPerimeter=0;entryX=0.531;entryY=0.175;entryDx=0;entryDy=0;entryPerimeter=0;dashed=1;dashPattern=8 8;" edge="1" parent="1">
          <mxGeometry width="50" height="50" relative="1" as="geometry">
            <mxPoint x="819.83" y="599.9999999999999" as="sourcePoint" />
            <mxPoint x="819.7999999999998" y="619.36" as="targetPoint" />
          </mxGeometry>
        </mxCell>
        <mxCell id="Y7QLgJ6ppj0nBjB0C8vn-192" value="" style="endArrow=classic;html=1;rounded=0;entryX=0.143;entryY=0;entryDx=0;entryDy=0;entryPerimeter=0;dashed=1;dashPattern=8 8;" edge="1" parent="1">
          <mxGeometry width="50" height="50" relative="1" as="geometry">
            <mxPoint x="940.07" y="650" as="sourcePoint" />
            <mxPoint x="939.9" y="680" as="targetPoint" />
          </mxGeometry>
        </mxCell>
        <mxCell id="Y7QLgJ6ppj0nBjB0C8vn-193" value="&lt;i style=&quot;font-size: 23px;&quot;&gt;$$h^{\hat{m}_a}$$&lt;/i&gt;" style="text;html=1;align=center;verticalAlign=middle;resizable=0;points=[];autosize=1;strokeColor=none;fillColor=none;fontSize=23;" vertex="1" parent="1">
          <mxGeometry x="835" y="620" width="210" height="40" as="geometry" />
        </mxCell>
        <mxCell id="Y7QLgJ6ppj0nBjB0C8vn-194" value="" style="endArrow=none;html=1;rounded=0;exitX=0.149;exitY=1.008;exitDx=0;exitDy=0;exitPerimeter=0;entryX=0.531;entryY=0.175;entryDx=0;entryDy=0;entryPerimeter=0;dashed=1;dashPattern=8 8;" edge="1" parent="1">
          <mxGeometry width="50" height="50" relative="1" as="geometry">
            <mxPoint x="939.8299999999999" y="599.9999999999999" as="sourcePoint" />
            <mxPoint x="939.7999999999997" y="619.36" as="targetPoint" />
          </mxGeometry>
        </mxCell>
        <mxCell id="Y7QLgJ6ppj0nBjB0C8vn-201" value="&lt;font style=&quot;font-size: 25px;&quot;&gt;&lt;b&gt;Multimodal&amp;nbsp;&lt;span style=&quot;background-color: initial;&quot;&gt;Model Architecture&lt;/span&gt;&lt;/b&gt;&lt;/font&gt;" style="text;html=1;align=center;verticalAlign=middle;resizable=0;points=[];autosize=1;strokeColor=none;fillColor=none;" vertex="1" parent="1">
          <mxGeometry x="-565" y="220" width="390" height="40" as="geometry" />
        </mxCell>
        <mxCell id="Y7QLgJ6ppj0nBjB0C8vn-202" value="&lt;font style=&quot;font-size: 25px;&quot;&gt;&lt;b&gt;C-MAM&lt;span style=&quot;background-color: initial;&quot;&gt;&amp;nbsp; Architecture &amp;amp;&amp;nbsp;&lt;/span&gt;&lt;span style=&quot;background-color: initial;&quot;&gt;Training&lt;/span&gt;&lt;/b&gt;&lt;/font&gt;" style="text;html=1;align=center;verticalAlign=middle;resizable=0;points=[];autosize=1;strokeColor=none;fillColor=none;" vertex="1" parent="1">
          <mxGeometry x="55" y="220" width="400" height="40" as="geometry" />
        </mxCell>
        <mxCell id="Y7QLgJ6ppj0nBjB0C8vn-204" value="&lt;span style=&quot;font-size: 25px;&quot;&gt;&lt;b&gt;Bimodal Multimodal Model&lt;/b&gt;&lt;/span&gt;&lt;div&gt;&lt;span style=&quot;font-size: 25px;&quot;&gt;&lt;b&gt;Inference with C-MAMs&lt;/b&gt;&lt;/span&gt;&lt;/div&gt;" style="text;html=1;align=center;verticalAlign=middle;resizable=0;points=[];autosize=1;strokeColor=none;fillColor=none;" vertex="1" parent="1">
          <mxGeometry x="710" y="205" width="340" height="70" as="geometry" />
        </mxCell>
      </root>
    </mxGraphModel>
  </diagram>
</mxfile>
